<svg width="25" height="25" viewBox="0 0 25 25" fill="none" xmlns="http://www.w3.org/2000/svg">
<path d="M12.198 5.08301C13.0938 5.08301 14.2084 4.47884 14.875 3.67676C15.4792 2.94759 15.9167 1.92676 15.9167 0.905924C15.9167 0.770508 15.9063 0.624674 15.875 0.520508C14.8855 0.562174 13.6875 1.18717 12.9688 2.03092C12.4063 2.67676 11.8855 3.67676 11.8855 4.70801C11.8855 4.85384 11.9063 5.01009 11.9271 5.06217C11.9896 5.07259 12.0938 5.08301 12.1875 5.08301H12.198ZM9.05212 20.3122C10.2709 20.3122 10.8125 19.4893 12.3334 19.4893C13.8542 19.4893 14.2188 20.2809 15.5834 20.2809C16.948 20.2809 17.8125 19.0518 18.6563 17.8434C19.6042 16.458 19.9896 15.1038 20.0105 15.0413C19.9271 15.0205 17.3646 13.9684 17.3646 11.0413C17.3646 8.49968 19.375 7.35384 19.4896 7.27051C18.1563 5.35384 16.125 5.31218 15.573 5.31218C14.073 5.31218 12.8542 6.21843 12.0834 6.21843C11.25 6.21843 10.1563 5.36426 8.86462 5.36426C6.39587 5.36426 3.89587 7.40592 3.89587 11.2497C3.89587 13.6351 4.82296 16.1663 5.96879 17.8018C6.94796 19.1872 7.80212 20.3226 9.04171 20.3226L9.05212 20.3122Z" fill="black"/>
</svg>
