<?xml version="1.0" standalone="no"?>
<!DOCTYPE svg PUBLIC "-//W3C//DTD SVG 20010904//EN"
 "http://www.w3.org/TR/2001/REC-SVG-20010904/DTD/svg10.dtd">
<svg version="1.0" xmlns="http://www.w3.org/2000/svg"
 width="344.000000pt" height="98.000000pt" viewBox="0 0 344.000000 98.000000"
 preserveAspectRatio="xMidYMid meet">

    <g transform="translate(0.000000,98.000000) scale(0.100000,-0.100000)"
    fill="#000" stroke="none">
    <path d="M248 930 c-91 -3 -170 -9 -175 -13 -14 -14 -21 -178 -22 -500 l-1
    -308 25 -24 24 -25 379 0 379 0 21 23 c22 23 22 27 22 414 0 370 -1 392 -19
    414 -19 24 -20 24 -243 24 -122 0 -298 -2 -390 -5z m260 -82 c17 -17 17 -679
    0 -696 -15 -15 -51 -15 -66 0 -16 16 -17 660 -2 689 12 21 50 25 68 7z m-159
    -122 c8 -9 11 -81 9 -237 l-3 -224 -35 0 -35 0 -3 225 c-1 123 0 230 2 237 7
    17 51 17 65 -1z m310 0 c8 -9 11 -81 9 -237 l-3 -224 -35 0 -35 0 -3 224 c-2
    231 1 251 38 251 10 0 23 -6 29 -14z m-459 -106 c12 -8 14 -30 12 -122 -2 -62
    -6 -116 -8 -120 -8 -12 -49 -9 -62 4 -8 8 -12 49 -12 120 0 91 3 108 18 117
    21 13 33 13 52 1z m608 -2 c13 -13 17 -202 6 -232 -8 -21 -60 -21 -68 0 -3 9
    -6 62 -6 118 0 104 7 126 40 126 9 0 21 -5 28 -12z"/>
    <path d="M1070 629 l0 -241 128 4 c114 3 134 7 182 31 58 28 92 68 116 134 21
    61 17 109 -16 179 -51 105 -114 134 -297 134 l-113 0 0 -241z m292 101 c34
    -37 38 -46 38 -93 0 -98 -56 -147 -169 -147 l-61 0 0 140 0 140 77 0 c76 0 76
    0 115 -40z"/>
    <path d="M1721 630 l0 -240 54 0 55 0 0 240 0 240 -55 0 -54 0 0 -240z"/>
    <path d="M2201 848 c-5 -13 -43 -108 -84 -213 -42 -104 -80 -203 -86 -218
    l-11 -28 57 3 c53 3 57 5 66 33 16 49 19 50 121 45 l96 -5 18 -35 c16 -33 21
    -35 70 -38 28 -2 52 -1 52 1 0 3 -42 110 -93 238 l-94 234 -51 3 c-47 3 -53 1
    -61 -20z m99 -199 c17 -45 29 -83 27 -85 -5 -5 -127 -8 -131 -3 -6 6 57 169
    65 169 4 0 22 -37 39 -81z"/>
    <path d="M2700 630 l0 -240 155 0 155 0 0 50 0 50 -105 0 -105 0 0 190 0 190
    -50 0 -50 0 0 -240z"/>
    </g>
</svg>
