<svg width="20" height="16" viewBox="0 0 20 16" fill="none" xmlns="http://www.w3.org/2000/svg">
<path fill-rule="evenodd" clip-rule="evenodd" d="M10 16C3 16 0 8 0 8C0 8 3 0 10 0C17 0 20 8 20 8C20 8 17 16 10 16ZM2.35195 8.32613C2.29129 8.20965 2.23644 8.10051 2.18735 8C2.23644 7.8995 2.29129 7.79035 2.35195 7.67387C2.69839 7.0087 3.22138 6.12992 3.92723 5.26119C5.35725 3.50116 7.34429 2 10 2C12.6557 2 14.6428 3.50116 16.0728 5.26119C16.7786 6.12992 17.3016 7.0087 17.648 7.67387C17.7087 7.79035 17.7636 7.8995 17.8126 8C17.7636 8.10051 17.7087 8.20965 17.648 8.32613C17.3016 8.9913 16.7786 9.87008 16.0728 10.7388C14.6428 12.4988 12.6557 14 10 14C7.34429 14 5.35725 12.4988 3.92723 10.7388C3.22138 9.87008 2.69839 8.9913 2.35195 8.32613ZM12 8C12 9.10457 11.1046 10 10 10C8.89543 10 8 9.10457 8 8C8 6.89543 8.89543 6 10 6C11.1046 6 12 6.89543 12 8ZM14 8C14 10.2091 12.2091 12 10 12C7.79086 12 6 10.2091 6 8C6 5.79086 7.79086 4 10 4C12.2091 4 14 5.79086 14 8Z" fill="white" />
</svg>
