<svg width="22" height="22" viewBox="0 0 22 16" fill="none" xmlns="http://www.w3.org/2000/svg">
<path fill-rule="evenodd" clip-rule="evenodd" d="M1 8C1 8 4 16 11 16C13.9232 16 16.1488 14.6049 17.7497 12.9799L20.7846 14.7321L21.7846 13L19.0657 11.4302C20.3861 9.63713 21 8 21 8C21 8 18 0 11 0C8.13164 0 5.93492 1.34326 4.34102 2.92894L1 1L0 2.73205L3.00898 4.46929C1.63704 6.30122 1 8 1 8ZM4.75529 5.47752C4.13581 6.27429 3.66965 7.0639 3.35195 7.67387C3.29129 7.79035 3.23644 7.8995 3.18735 8C3.23644 8.10051 3.29129 8.20965 3.35195 8.32613C3.69839 8.9913 4.22138 9.87008 4.92723 10.7388C6.35725 12.4988 8.34429 14 11 14C13.0204 14 14.6538 13.1311 15.9494 11.9404L13.8986 10.7564C13.1699 11.5225 12.1407 12 11 12C8.79086 12 7 10.2091 7 8C7 7.60662 7.05679 7.22649 7.16261 6.86739L4.75529 5.47752ZM9.00124 7.92892C9.00042 7.95251 9 7.97621 9 8C9 9.10457 9.89543 10 11 10C11.3898 10 11.7536 9.88847 12.0612 9.69557L9.00124 7.92892ZM12.9987 7.92746L10.0631 6.23258C10.3426 6.08411 10.6615 6 11 6C12.0803 6 12.9605 6.85649 12.9987 7.92746ZM14.8717 9.00883C14.9554 8.68655 15 8.34848 15 8C15 5.79086 13.2091 4 11 4C9.90546 4 8.91359 4.43962 8.19135 5.15193L6.14736 3.97183C7.42719 2.82642 9.02953 2 11 2C13.6557 2 15.6428 3.50116 17.0728 5.26119C17.7786 6.12992 18.3016 7.0087 18.648 7.67387C18.7087 7.79035 18.7636 7.8995 18.8126 8C18.7636 8.10051 18.7087 8.20965 18.648 8.32613C18.3436 8.91072 17.9027 9.66032 17.3212 10.4231L14.8717 9.00883Z" fill="white" fill-opacity="0.6"/>
</svg>